<mxfile host="app.diagrams.net" modified="2024-06-19T02:58:05.829Z" agent="Mozilla/5.0 (Windows NT 10.0; Win64; x64) AppleWebKit/537.36 (KHTML, like Gecko) Chrome/126.0.0.0 Safari/537.36 Edg/126.0.0.0" etag="0ecGqookZ15CyO_p9wM7" version="24.0.7" type="device">
  <diagram id="prtHgNgQTEPvFCAcTncT" name="Page-1">
    <mxGraphModel dx="1109" dy="693" grid="1" gridSize="10" guides="1" tooltips="1" connect="1" arrows="1" fold="1" page="1" pageScale="1" pageWidth="827" pageHeight="1169" math="0" shadow="0">
      <root>
        <mxCell id="0" />
        <mxCell id="1" parent="0" />
        <mxCell id="dNxyNK7c78bLwvsdeMH5-19" value="Pool" style="swimlane;html=1;childLayout=stackLayout;resizeParent=1;resizeParentMax=0;horizontal=0;startSize=20;horizontalStack=0;fillColor=default;swimlaneFillColor=none;" parent="1" vertex="1">
          <mxGeometry x="120" y="120" width="730" height="720" as="geometry">
            <mxRectangle x="120" y="120" width="40" height="50" as="alternateBounds" />
          </mxGeometry>
        </mxCell>
        <mxCell id="dNxyNK7c78bLwvsdeMH5-20" value="New User" style="swimlane;html=1;startSize=20;horizontal=0;" parent="dNxyNK7c78bLwvsdeMH5-19" vertex="1">
          <mxGeometry x="20" width="710" height="120" as="geometry" />
        </mxCell>
        <mxCell id="dNxyNK7c78bLwvsdeMH5-25" value="" style="edgeStyle=orthogonalEdgeStyle;rounded=0;orthogonalLoop=1;jettySize=auto;html=1;" parent="dNxyNK7c78bLwvsdeMH5-20" source="dNxyNK7c78bLwvsdeMH5-23" target="dNxyNK7c78bLwvsdeMH5-24" edge="1">
          <mxGeometry relative="1" as="geometry" />
        </mxCell>
        <mxCell id="dNxyNK7c78bLwvsdeMH5-23" value="New&lt;div&gt;Us&lt;span style=&quot;background-color: initial;&quot;&gt;er&lt;/span&gt;&lt;/div&gt;" style="ellipse;whiteSpace=wrap;html=1;" parent="dNxyNK7c78bLwvsdeMH5-20" vertex="1">
          <mxGeometry x="40" y="40" width="40" height="40" as="geometry" />
        </mxCell>
        <mxCell id="p8w2NyexJX4JicnwybBd-7" style="edgeStyle=orthogonalEdgeStyle;rounded=0;orthogonalLoop=1;jettySize=auto;html=1;exitX=1;exitY=0.5;exitDx=0;exitDy=0;entryX=0;entryY=0.5;entryDx=0;entryDy=0;" edge="1" parent="dNxyNK7c78bLwvsdeMH5-20" source="dNxyNK7c78bLwvsdeMH5-24" target="p8w2NyexJX4JicnwybBd-5">
          <mxGeometry relative="1" as="geometry" />
        </mxCell>
        <mxCell id="dNxyNK7c78bLwvsdeMH5-24" value="Registration" style="rounded=0;whiteSpace=wrap;html=1;fontFamily=Helvetica;fontSize=12;fontColor=#000000;align=center;" parent="dNxyNK7c78bLwvsdeMH5-20" vertex="1">
          <mxGeometry x="120" y="30" width="80" height="60" as="geometry" />
        </mxCell>
        <mxCell id="dNxyNK7c78bLwvsdeMH5-33" value="" style="edgeStyle=orthogonalEdgeStyle;rounded=0;orthogonalLoop=1;jettySize=auto;html=1;endArrow=classic;endFill=1;" parent="dNxyNK7c78bLwvsdeMH5-20" target="dNxyNK7c78bLwvsdeMH5-32" edge="1">
          <mxGeometry relative="1" as="geometry">
            <mxPoint x="320" y="60" as="sourcePoint" />
          </mxGeometry>
        </mxCell>
        <mxCell id="p8w2NyexJX4JicnwybBd-10" style="edgeStyle=orthogonalEdgeStyle;rounded=0;orthogonalLoop=1;jettySize=auto;html=1;exitX=1;exitY=0.5;exitDx=0;exitDy=0;entryX=0;entryY=0.5;entryDx=0;entryDy=0;" edge="1" parent="dNxyNK7c78bLwvsdeMH5-20" source="p8w2NyexJX4JicnwybBd-5" target="p8w2NyexJX4JicnwybBd-8">
          <mxGeometry relative="1" as="geometry" />
        </mxCell>
        <mxCell id="p8w2NyexJX4JicnwybBd-12" style="edgeStyle=orthogonalEdgeStyle;rounded=0;orthogonalLoop=1;jettySize=auto;html=1;exitX=1;exitY=0.5;exitDx=0;exitDy=0;entryX=0;entryY=0.5;entryDx=0;entryDy=0;" edge="1" parent="dNxyNK7c78bLwvsdeMH5-20" source="p8w2NyexJX4JicnwybBd-5" target="p8w2NyexJX4JicnwybBd-11">
          <mxGeometry relative="1" as="geometry" />
        </mxCell>
        <mxCell id="p8w2NyexJX4JicnwybBd-5" value="If he is a existing shooter?" style="shape=process;whiteSpace=wrap;html=1;backgroundOutline=1;" vertex="1" parent="dNxyNK7c78bLwvsdeMH5-20">
          <mxGeometry x="240" y="30" width="120" height="60" as="geometry" />
        </mxCell>
        <mxCell id="p8w2NyexJX4JicnwybBd-8" value="Yes" style="shape=parallelogram;perimeter=parallelogramPerimeter;whiteSpace=wrap;html=1;fixedSize=1;" vertex="1" parent="dNxyNK7c78bLwvsdeMH5-20">
          <mxGeometry x="400" y="30" width="80" height="30" as="geometry" />
        </mxCell>
        <mxCell id="p8w2NyexJX4JicnwybBd-14" style="edgeStyle=orthogonalEdgeStyle;rounded=0;orthogonalLoop=1;jettySize=auto;html=1;exitX=1;exitY=0.5;exitDx=0;exitDy=0;" edge="1" parent="dNxyNK7c78bLwvsdeMH5-20" source="p8w2NyexJX4JicnwybBd-11">
          <mxGeometry relative="1" as="geometry">
            <mxPoint x="610" y="160" as="targetPoint" />
          </mxGeometry>
        </mxCell>
        <mxCell id="p8w2NyexJX4JicnwybBd-11" value="No" style="shape=parallelogram;perimeter=parallelogramPerimeter;whiteSpace=wrap;html=1;fixedSize=1;" vertex="1" parent="dNxyNK7c78bLwvsdeMH5-20">
          <mxGeometry x="390" y="60" width="80" height="30" as="geometry" />
        </mxCell>
        <mxCell id="p8w2NyexJX4JicnwybBd-49" value="Shooter profile" style="swimlane;html=1;startSize=20;horizontal=0;" vertex="1" parent="dNxyNK7c78bLwvsdeMH5-19">
          <mxGeometry x="20" y="120" width="710" height="120" as="geometry" />
        </mxCell>
        <mxCell id="p8w2NyexJX4JicnwybBd-54" value="" style="edgeStyle=orthogonalEdgeStyle;rounded=0;orthogonalLoop=1;jettySize=auto;html=1;endArrow=classic;endFill=1;" edge="1" parent="p8w2NyexJX4JicnwybBd-49">
          <mxGeometry relative="1" as="geometry">
            <mxPoint x="320" y="60" as="sourcePoint" />
          </mxGeometry>
        </mxCell>
        <mxCell id="p8w2NyexJX4JicnwybBd-15" value="Request team admin to take back the profile" style="rounded=1;whiteSpace=wrap;html=1;" vertex="1" parent="p8w2NyexJX4JicnwybBd-49">
          <mxGeometry x="520" y="-90" width="170" height="30" as="geometry" />
        </mxCell>
        <mxCell id="p8w2NyexJX4JicnwybBd-66" style="edgeStyle=orthogonalEdgeStyle;rounded=0;orthogonalLoop=1;jettySize=auto;html=1;exitX=0;exitY=0.5;exitDx=0;exitDy=0;" edge="1" parent="p8w2NyexJX4JicnwybBd-49" source="p8w2NyexJX4JicnwybBd-62" target="p8w2NyexJX4JicnwybBd-65">
          <mxGeometry relative="1" as="geometry" />
        </mxCell>
        <mxCell id="p8w2NyexJX4JicnwybBd-62" value="Create a new shooer profile" style="rounded=1;whiteSpace=wrap;html=1;" vertex="1" parent="p8w2NyexJX4JicnwybBd-49">
          <mxGeometry x="530" y="45" width="170" height="30" as="geometry" />
        </mxCell>
        <mxCell id="p8w2NyexJX4JicnwybBd-65" value="Shooter profile" style="shape=cylinder3;whiteSpace=wrap;html=1;boundedLbl=1;backgroundOutline=1;size=15;" vertex="1" parent="p8w2NyexJX4JicnwybBd-49">
          <mxGeometry x="315" y="20" width="60" height="80" as="geometry" />
        </mxCell>
        <mxCell id="p8w2NyexJX4JicnwybBd-16" style="edgeStyle=orthogonalEdgeStyle;rounded=0;orthogonalLoop=1;jettySize=auto;html=1;exitX=1;exitY=0.5;exitDx=0;exitDy=0;" edge="1" parent="dNxyNK7c78bLwvsdeMH5-19" source="p8w2NyexJX4JicnwybBd-8" target="p8w2NyexJX4JicnwybBd-15">
          <mxGeometry relative="1" as="geometry" />
        </mxCell>
        <mxCell id="p8w2NyexJX4JicnwybBd-104" style="edgeStyle=orthogonalEdgeStyle;rounded=0;orthogonalLoop=1;jettySize=auto;html=1;exitX=1;exitY=0.5;exitDx=0;exitDy=0;" edge="1" parent="dNxyNK7c78bLwvsdeMH5-19" source="p8w2NyexJX4JicnwybBd-91" target="p8w2NyexJX4JicnwybBd-62">
          <mxGeometry relative="1" as="geometry">
            <Array as="points">
              <mxPoint x="570" y="315" />
            </Array>
          </mxGeometry>
        </mxCell>
        <mxCell id="p8w2NyexJX4JicnwybBd-67" value="Team" style="swimlane;html=1;startSize=20;horizontal=0;" vertex="1" parent="dNxyNK7c78bLwvsdeMH5-19">
          <mxGeometry x="20" y="240" width="710" height="120" as="geometry" />
        </mxCell>
        <mxCell id="p8w2NyexJX4JicnwybBd-68" value="" style="edgeStyle=orthogonalEdgeStyle;rounded=0;orthogonalLoop=1;jettySize=auto;html=1;endArrow=classic;endFill=1;" edge="1" parent="p8w2NyexJX4JicnwybBd-67">
          <mxGeometry relative="1" as="geometry">
            <mxPoint x="320" y="60" as="sourcePoint" />
          </mxGeometry>
        </mxCell>
        <mxCell id="p8w2NyexJX4JicnwybBd-70" style="edgeStyle=orthogonalEdgeStyle;rounded=0;orthogonalLoop=1;jettySize=auto;html=1;exitX=0;exitY=0.5;exitDx=0;exitDy=0;" edge="1" parent="p8w2NyexJX4JicnwybBd-67" target="p8w2NyexJX4JicnwybBd-72">
          <mxGeometry relative="1" as="geometry">
            <mxPoint x="530" y="60" as="sourcePoint" />
          </mxGeometry>
        </mxCell>
        <mxCell id="p8w2NyexJX4JicnwybBd-122" style="edgeStyle=orthogonalEdgeStyle;rounded=0;orthogonalLoop=1;jettySize=auto;html=1;exitX=1;exitY=0.5;exitDx=0;exitDy=0;entryX=0;entryY=0.5;entryDx=0;entryDy=0;" edge="1" parent="p8w2NyexJX4JicnwybBd-67" source="p8w2NyexJX4JicnwybBd-76" target="p8w2NyexJX4JicnwybBd-89">
          <mxGeometry relative="1" as="geometry" />
        </mxCell>
        <mxCell id="p8w2NyexJX4JicnwybBd-76" value="Create team" style="shape=process;whiteSpace=wrap;html=1;backgroundOutline=1;" vertex="1" parent="p8w2NyexJX4JicnwybBd-67">
          <mxGeometry x="80" y="30" width="120" height="60" as="geometry" />
        </mxCell>
        <mxCell id="p8w2NyexJX4JicnwybBd-80" style="edgeStyle=orthogonalEdgeStyle;rounded=0;orthogonalLoop=1;jettySize=auto;html=1;exitX=0.5;exitY=0.5;exitDx=0;exitDy=0;exitPerimeter=0;entryX=0;entryY=0.5;entryDx=0;entryDy=0;" edge="1" parent="p8w2NyexJX4JicnwybBd-67" source="p8w2NyexJX4JicnwybBd-79" target="p8w2NyexJX4JicnwybBd-76">
          <mxGeometry relative="1" as="geometry" />
        </mxCell>
        <mxCell id="p8w2NyexJX4JicnwybBd-79" value="User" style="shape=umlActor;verticalLabelPosition=bottom;verticalAlign=top;html=1;outlineConnect=0;" vertex="1" parent="p8w2NyexJX4JicnwybBd-67">
          <mxGeometry x="30" y="30" width="30" height="60" as="geometry" />
        </mxCell>
        <mxCell id="p8w2NyexJX4JicnwybBd-81" value="Team shooter list" style="shape=cylinder3;whiteSpace=wrap;html=1;boundedLbl=1;backgroundOutline=1;size=15;" vertex="1" parent="p8w2NyexJX4JicnwybBd-67">
          <mxGeometry x="640" y="20" width="60" height="80" as="geometry" />
        </mxCell>
        <mxCell id="p8w2NyexJX4JicnwybBd-92" style="edgeStyle=orthogonalEdgeStyle;rounded=0;orthogonalLoop=1;jettySize=auto;html=1;exitX=1;exitY=0.25;exitDx=0;exitDy=0;entryX=0;entryY=0.5;entryDx=0;entryDy=0;" edge="1" parent="p8w2NyexJX4JicnwybBd-67" source="p8w2NyexJX4JicnwybBd-89" target="p8w2NyexJX4JicnwybBd-90">
          <mxGeometry relative="1" as="geometry" />
        </mxCell>
        <mxCell id="p8w2NyexJX4JicnwybBd-93" style="edgeStyle=orthogonalEdgeStyle;rounded=0;orthogonalLoop=1;jettySize=auto;html=1;exitX=1;exitY=0.75;exitDx=0;exitDy=0;entryX=0;entryY=0.5;entryDx=0;entryDy=0;" edge="1" parent="p8w2NyexJX4JicnwybBd-67" source="p8w2NyexJX4JicnwybBd-89" target="p8w2NyexJX4JicnwybBd-91">
          <mxGeometry relative="1" as="geometry" />
        </mxCell>
        <mxCell id="p8w2NyexJX4JicnwybBd-89" value="Is&lt;span style=&quot;background-color: initial;&quot;&gt;&amp;nbsp;invitee has shooter profile?&lt;/span&gt;" style="shape=process;whiteSpace=wrap;html=1;backgroundOutline=1;" vertex="1" parent="p8w2NyexJX4JicnwybBd-67">
          <mxGeometry x="220" y="30" width="120" height="60" as="geometry" />
        </mxCell>
        <mxCell id="p8w2NyexJX4JicnwybBd-90" value="Yes" style="shape=parallelogram;perimeter=parallelogramPerimeter;whiteSpace=wrap;html=1;fixedSize=1;" vertex="1" parent="p8w2NyexJX4JicnwybBd-67">
          <mxGeometry x="370" y="30" width="80" height="30" as="geometry" />
        </mxCell>
        <mxCell id="p8w2NyexJX4JicnwybBd-106" style="edgeStyle=orthogonalEdgeStyle;rounded=0;orthogonalLoop=1;jettySize=auto;html=1;exitX=1;exitY=0.5;exitDx=0;exitDy=0;" edge="1" parent="p8w2NyexJX4JicnwybBd-67" source="p8w2NyexJX4JicnwybBd-91" target="p8w2NyexJX4JicnwybBd-81">
          <mxGeometry relative="1" as="geometry">
            <Array as="points">
              <mxPoint x="550" y="75" />
              <mxPoint x="550" y="90" />
            </Array>
          </mxGeometry>
        </mxCell>
        <mxCell id="p8w2NyexJX4JicnwybBd-91" value="No" style="shape=parallelogram;perimeter=parallelogramPerimeter;whiteSpace=wrap;html=1;fixedSize=1;" vertex="1" parent="p8w2NyexJX4JicnwybBd-67">
          <mxGeometry x="360" y="60" width="80" height="30" as="geometry" />
        </mxCell>
        <mxCell id="p8w2NyexJX4JicnwybBd-97" value="Invite shooter" style="edgeStyle=orthogonalEdgeStyle;rounded=0;orthogonalLoop=1;jettySize=auto;html=1;exitX=1;exitY=0.5;exitDx=0;exitDy=0;entryX=-0.029;entryY=0.591;entryDx=0;entryDy=0;entryPerimeter=0;" edge="1" parent="p8w2NyexJX4JicnwybBd-67" source="p8w2NyexJX4JicnwybBd-90" target="p8w2NyexJX4JicnwybBd-81">
          <mxGeometry relative="1" as="geometry">
            <Array as="points">
              <mxPoint x="610" y="45" />
              <mxPoint x="610" y="67" />
            </Array>
          </mxGeometry>
        </mxCell>
        <mxCell id="p8w2NyexJX4JicnwybBd-107" value="Stage" style="swimlane;html=1;startSize=20;horizontal=0;" vertex="1" parent="dNxyNK7c78bLwvsdeMH5-19">
          <mxGeometry x="20" y="360" width="710" height="120" as="geometry" />
        </mxCell>
        <mxCell id="p8w2NyexJX4JicnwybBd-108" value="" style="edgeStyle=orthogonalEdgeStyle;rounded=0;orthogonalLoop=1;jettySize=auto;html=1;endArrow=classic;endFill=1;" edge="1" parent="p8w2NyexJX4JicnwybBd-107">
          <mxGeometry relative="1" as="geometry">
            <mxPoint x="320" y="60" as="sourcePoint" />
          </mxGeometry>
        </mxCell>
        <mxCell id="p8w2NyexJX4JicnwybBd-109" style="edgeStyle=orthogonalEdgeStyle;rounded=0;orthogonalLoop=1;jettySize=auto;html=1;exitX=0;exitY=0.5;exitDx=0;exitDy=0;" edge="1" parent="p8w2NyexJX4JicnwybBd-107">
          <mxGeometry relative="1" as="geometry">
            <mxPoint x="530" y="60" as="sourcePoint" />
          </mxGeometry>
        </mxCell>
        <mxCell id="p8w2NyexJX4JicnwybBd-125" style="edgeStyle=orthogonalEdgeStyle;rounded=0;orthogonalLoop=1;jettySize=auto;html=1;exitX=0.5;exitY=0.5;exitDx=0;exitDy=0;exitPerimeter=0;" edge="1" parent="p8w2NyexJX4JicnwybBd-107" source="p8w2NyexJX4JicnwybBd-123" target="p8w2NyexJX4JicnwybBd-124">
          <mxGeometry relative="1" as="geometry" />
        </mxCell>
        <mxCell id="p8w2NyexJX4JicnwybBd-123" value="User" style="shape=umlActor;verticalLabelPosition=bottom;verticalAlign=top;html=1;outlineConnect=0;" vertex="1" parent="p8w2NyexJX4JicnwybBd-107">
          <mxGeometry x="30" y="30" width="30" height="60" as="geometry" />
        </mxCell>
        <mxCell id="p8w2NyexJX4JicnwybBd-127" style="edgeStyle=orthogonalEdgeStyle;rounded=0;orthogonalLoop=1;jettySize=auto;html=1;exitX=1;exitY=0.5;exitDx=0;exitDy=0;" edge="1" parent="p8w2NyexJX4JicnwybBd-107" source="p8w2NyexJX4JicnwybBd-124" target="p8w2NyexJX4JicnwybBd-126">
          <mxGeometry relative="1" as="geometry" />
        </mxCell>
        <mxCell id="p8w2NyexJX4JicnwybBd-124" value="Create stage" style="shape=process;whiteSpace=wrap;html=1;backgroundOutline=1;" vertex="1" parent="p8w2NyexJX4JicnwybBd-107">
          <mxGeometry x="80" y="30" width="120" height="60" as="geometry" />
        </mxCell>
        <mxCell id="p8w2NyexJX4JicnwybBd-126" value="Stages" style="shape=cylinder3;whiteSpace=wrap;html=1;boundedLbl=1;backgroundOutline=1;size=15;" vertex="1" parent="p8w2NyexJX4JicnwybBd-107">
          <mxGeometry x="640" y="20" width="60" height="80" as="geometry" />
        </mxCell>
        <mxCell id="p8w2NyexJX4JicnwybBd-136" value="Match" style="swimlane;html=1;startSize=20;horizontal=0;" vertex="1" parent="dNxyNK7c78bLwvsdeMH5-19">
          <mxGeometry x="20" y="480" width="710" height="120" as="geometry" />
        </mxCell>
        <mxCell id="p8w2NyexJX4JicnwybBd-137" value="" style="edgeStyle=orthogonalEdgeStyle;rounded=0;orthogonalLoop=1;jettySize=auto;html=1;endArrow=classic;endFill=1;" edge="1" parent="p8w2NyexJX4JicnwybBd-136">
          <mxGeometry relative="1" as="geometry">
            <mxPoint x="320" y="60" as="sourcePoint" />
          </mxGeometry>
        </mxCell>
        <mxCell id="p8w2NyexJX4JicnwybBd-138" style="edgeStyle=orthogonalEdgeStyle;rounded=0;orthogonalLoop=1;jettySize=auto;html=1;exitX=0;exitY=0.5;exitDx=0;exitDy=0;" edge="1" parent="p8w2NyexJX4JicnwybBd-136">
          <mxGeometry relative="1" as="geometry">
            <mxPoint x="530" y="60" as="sourcePoint" />
          </mxGeometry>
        </mxCell>
        <mxCell id="p8w2NyexJX4JicnwybBd-139" style="edgeStyle=orthogonalEdgeStyle;rounded=0;orthogonalLoop=1;jettySize=auto;html=1;exitX=0.5;exitY=0.5;exitDx=0;exitDy=0;exitPerimeter=0;" edge="1" parent="p8w2NyexJX4JicnwybBd-136" target="p8w2NyexJX4JicnwybBd-142">
          <mxGeometry relative="1" as="geometry">
            <mxPoint x="45" y="60" as="sourcePoint" />
          </mxGeometry>
        </mxCell>
        <mxCell id="p8w2NyexJX4JicnwybBd-141" style="edgeStyle=orthogonalEdgeStyle;rounded=0;orthogonalLoop=1;jettySize=auto;html=1;exitX=1;exitY=0.5;exitDx=0;exitDy=0;" edge="1" parent="p8w2NyexJX4JicnwybBd-136" target="p8w2NyexJX4JicnwybBd-143">
          <mxGeometry relative="1" as="geometry">
            <mxPoint x="200" y="60" as="sourcePoint" />
          </mxGeometry>
        </mxCell>
        <mxCell id="p8w2NyexJX4JicnwybBd-146" style="edgeStyle=orthogonalEdgeStyle;rounded=0;orthogonalLoop=1;jettySize=auto;html=1;entryX=0;entryY=0.5;entryDx=0;entryDy=0;" edge="1" parent="p8w2NyexJX4JicnwybBd-136" source="p8w2NyexJX4JicnwybBd-144" target="p8w2NyexJX4JicnwybBd-145">
          <mxGeometry relative="1" as="geometry">
            <mxPoint x="70" y="50" as="sourcePoint" />
          </mxGeometry>
        </mxCell>
        <mxCell id="p8w2NyexJX4JicnwybBd-144" value="User&lt;div&gt;(match admin)&lt;/div&gt;" style="shape=umlActor;verticalLabelPosition=bottom;verticalAlign=top;html=1;outlineConnect=0;" vertex="1" parent="p8w2NyexJX4JicnwybBd-136">
          <mxGeometry x="50" y="20" width="30" height="60" as="geometry" />
        </mxCell>
        <mxCell id="p8w2NyexJX4JicnwybBd-149" style="edgeStyle=orthogonalEdgeStyle;rounded=0;orthogonalLoop=1;jettySize=auto;html=1;exitX=1;exitY=0.5;exitDx=0;exitDy=0;" edge="1" parent="p8w2NyexJX4JicnwybBd-136" source="p8w2NyexJX4JicnwybBd-145" target="p8w2NyexJX4JicnwybBd-148">
          <mxGeometry relative="1" as="geometry" />
        </mxCell>
        <mxCell id="p8w2NyexJX4JicnwybBd-145" value="Create match" style="shape=process;whiteSpace=wrap;html=1;backgroundOutline=1;" vertex="1" parent="p8w2NyexJX4JicnwybBd-136">
          <mxGeometry x="145" y="20" width="120" height="60" as="geometry" />
        </mxCell>
        <mxCell id="p8w2NyexJX4JicnwybBd-148" value="Add match shooter" style="shape=process;whiteSpace=wrap;html=1;backgroundOutline=1;" vertex="1" parent="p8w2NyexJX4JicnwybBd-136">
          <mxGeometry x="330" y="20" width="120" height="60" as="geometry" />
        </mxCell>
        <mxCell id="p8w2NyexJX4JicnwybBd-150" value="Match shooter inherent from shooter&amp;nbsp;" style="text;html=1;align=center;verticalAlign=middle;resizable=0;points=[];autosize=1;strokeColor=none;fillColor=none;" vertex="1" parent="p8w2NyexJX4JicnwybBd-136">
          <mxGeometry x="280" y="80" width="220" height="30" as="geometry" />
        </mxCell>
        <mxCell id="p8w2NyexJX4JicnwybBd-151" value="Match" style="swimlane;html=1;startSize=20;horizontal=0;" vertex="1" parent="dNxyNK7c78bLwvsdeMH5-19">
          <mxGeometry x="20" y="600" width="710" height="120" as="geometry" />
        </mxCell>
        <mxCell id="p8w2NyexJX4JicnwybBd-152" value="" style="edgeStyle=orthogonalEdgeStyle;rounded=0;orthogonalLoop=1;jettySize=auto;html=1;endArrow=classic;endFill=1;" edge="1" parent="p8w2NyexJX4JicnwybBd-151">
          <mxGeometry relative="1" as="geometry">
            <mxPoint x="320" y="60" as="sourcePoint" />
          </mxGeometry>
        </mxCell>
        <mxCell id="p8w2NyexJX4JicnwybBd-153" style="edgeStyle=orthogonalEdgeStyle;rounded=0;orthogonalLoop=1;jettySize=auto;html=1;exitX=0;exitY=0.5;exitDx=0;exitDy=0;" edge="1" parent="p8w2NyexJX4JicnwybBd-151">
          <mxGeometry relative="1" as="geometry">
            <mxPoint x="530" y="60" as="sourcePoint" />
          </mxGeometry>
        </mxCell>
        <mxCell id="p8w2NyexJX4JicnwybBd-154" style="edgeStyle=orthogonalEdgeStyle;rounded=0;orthogonalLoop=1;jettySize=auto;html=1;exitX=0.5;exitY=0.5;exitDx=0;exitDy=0;exitPerimeter=0;" edge="1" parent="p8w2NyexJX4JicnwybBd-151">
          <mxGeometry relative="1" as="geometry">
            <mxPoint x="45" y="60" as="sourcePoint" />
          </mxGeometry>
        </mxCell>
        <mxCell id="p8w2NyexJX4JicnwybBd-155" style="edgeStyle=orthogonalEdgeStyle;rounded=0;orthogonalLoop=1;jettySize=auto;html=1;exitX=1;exitY=0.5;exitDx=0;exitDy=0;" edge="1" parent="p8w2NyexJX4JicnwybBd-151">
          <mxGeometry relative="1" as="geometry">
            <mxPoint x="200" y="60" as="sourcePoint" />
          </mxGeometry>
        </mxCell>
        <mxCell id="p8w2NyexJX4JicnwybBd-156" style="edgeStyle=orthogonalEdgeStyle;rounded=0;orthogonalLoop=1;jettySize=auto;html=1;entryX=0;entryY=0.5;entryDx=0;entryDy=0;" edge="1" parent="p8w2NyexJX4JicnwybBd-151" target="p8w2NyexJX4JicnwybBd-159">
          <mxGeometry relative="1" as="geometry">
            <mxPoint x="80" y="50" as="sourcePoint" />
          </mxGeometry>
        </mxCell>
        <mxCell id="p8w2NyexJX4JicnwybBd-158" style="edgeStyle=orthogonalEdgeStyle;rounded=0;orthogonalLoop=1;jettySize=auto;html=1;exitX=1;exitY=0.5;exitDx=0;exitDy=0;" edge="1" parent="p8w2NyexJX4JicnwybBd-151" target="p8w2NyexJX4JicnwybBd-160">
          <mxGeometry relative="1" as="geometry">
            <mxPoint x="265" y="50" as="sourcePoint" />
          </mxGeometry>
        </mxCell>
        <mxCell id="p8w2NyexJX4JicnwybBd-166" style="edgeStyle=orthogonalEdgeStyle;rounded=0;orthogonalLoop=1;jettySize=auto;html=1;exitX=1;exitY=0.5;exitDx=0;exitDy=0;" edge="1" parent="p8w2NyexJX4JicnwybBd-151" source="p8w2NyexJX4JicnwybBd-163" target="p8w2NyexJX4JicnwybBd-165">
          <mxGeometry relative="1" as="geometry" />
        </mxCell>
        <mxCell id="p8w2NyexJX4JicnwybBd-163" value="After match" style="ellipse;whiteSpace=wrap;html=1;aspect=fixed;" vertex="1" parent="p8w2NyexJX4JicnwybBd-151">
          <mxGeometry x="165" y="20" width="80" height="80" as="geometry" />
        </mxCell>
        <mxCell id="p8w2NyexJX4JicnwybBd-169" style="edgeStyle=orthogonalEdgeStyle;rounded=0;orthogonalLoop=1;jettySize=auto;html=1;exitX=1;exitY=0.5;exitDx=0;exitDy=0;entryX=0;entryY=0.5;entryDx=0;entryDy=0;" edge="1" parent="p8w2NyexJX4JicnwybBd-151" source="p8w2NyexJX4JicnwybBd-165" target="p8w2NyexJX4JicnwybBd-167">
          <mxGeometry relative="1" as="geometry" />
        </mxCell>
        <mxCell id="p8w2NyexJX4JicnwybBd-165" value="Calculate ELO&lt;div&gt;and statistics&amp;nbsp;&lt;/div&gt;" style="shape=process;whiteSpace=wrap;html=1;backgroundOutline=1;" vertex="1" parent="p8w2NyexJX4JicnwybBd-151">
          <mxGeometry x="330" y="30" width="120" height="60" as="geometry" />
        </mxCell>
        <mxCell id="p8w2NyexJX4JicnwybBd-167" value="Store back to each shooter" style="shape=process;whiteSpace=wrap;html=1;backgroundOutline=1;" vertex="1" parent="p8w2NyexJX4JicnwybBd-151">
          <mxGeometry x="555" y="30" width="120" height="60" as="geometry" />
        </mxCell>
        <mxCell id="p8w2NyexJX4JicnwybBd-162" style="edgeStyle=orthogonalEdgeStyle;rounded=0;orthogonalLoop=1;jettySize=auto;html=1;entryX=0.5;entryY=0;entryDx=0;entryDy=0;" edge="1" parent="dNxyNK7c78bLwvsdeMH5-19" source="p8w2NyexJX4JicnwybBd-126" target="p8w2NyexJX4JicnwybBd-145">
          <mxGeometry relative="1" as="geometry">
            <Array as="points">
              <mxPoint x="690" y="490" />
              <mxPoint x="225" y="490" />
            </Array>
          </mxGeometry>
        </mxCell>
        <mxCell id="p8w2NyexJX4JicnwybBd-164" style="edgeStyle=orthogonalEdgeStyle;rounded=0;orthogonalLoop=1;jettySize=auto;html=1;" edge="1" parent="dNxyNK7c78bLwvsdeMH5-19" source="p8w2NyexJX4JicnwybBd-145" target="p8w2NyexJX4JicnwybBd-163">
          <mxGeometry relative="1" as="geometry" />
        </mxCell>
      </root>
    </mxGraphModel>
  </diagram>
</mxfile>
